<svg xmlns="http://www.w3.org/2000/svg" viewBox="0 0 512 512" style="enable-background:new 0 0 512 512" xml:space="preserve"><circle style="fill:#ff50b5" cx="256" cy="256" r="256"/><path style="fill:#4b4c9b" d="M406.08 61.77v401.64C363.91 493.98 312.06 512 256 512c-55.55 0-106.96-17.7-148.92-47.76V61.77c0-8.36 6.78-15.13 15.14-15.13h268.73c8.36 0 15.13 6.77 15.13 15.13z"/><path style="fill:#303049" d="M406.08 105.3v358.11C363.91 493.98 312.06 512 256 512c-55.55 0-106.96-17.7-148.92-47.76V105.3h299z"/><path style="fill:#27273d" d="M406.08 415.93v47.48C363.91 493.98 312.06 512 256 512c-55.55 0-106.96-17.7-148.92-47.76V105.3h106v117.63c0 2.22.04 4.43.11 6.63.15 4.25.43 8.46.84 12.63.72 7.23 1.83 14.35 3.33 21.32a189.96 189.96 0 0 0 9.59 31.38 192.595 192.595 0 0 0 25.25 44.55 194.478 194.478 0 0 0 32.13 33.25 193.919 193.919 0 0 0 17.4 12.62c3.84 2.48 7.79 4.83 11.82 7.03.72.4 1.44.79 2.17 1.18 5.19 2.75 10.53 5.28 15.99 7.56a191.295 191.295 0 0 0 44.79 12.6 194.85 194.85 0 0 0 29.58 2.25z"/><path style="fill:#3e436d" d="M290.917 91.638H222.25c-6.167 0-11.167-4.999-11.167-11.167 0-6.167 4.999-11.167 11.167-11.167h68.667c6.167 0 11.167 4.999 11.167 11.167-.001 6.167-5 11.167-11.167 11.167zM103.419 266.305h3.664V164.638h-3.664c-8.286 0-15.002 6.717-15.002 15.002v71.662c0 8.286 6.716 15.003 15.002 15.003zM414.472 164.638h-8.389v40h8.389a9.11 9.11 0 0 0 9.111-9.111V173.75a9.111 9.111 0 0 0-9.111-9.112zM414.472 229.893h-8.389v40h8.389a9.11 9.11 0 0 0 9.111-9.111v-21.777a9.112 9.112 0 0 0-9.111-9.112z"/><path style="fill:#fff" d="M285.23 126.75H225.2c-2.72 0-4.93 2.21-4.93 4.93v60.04c0 2.72 2.21 4.92 4.93 4.92h5.84v9.99c0 2.23 1.82 4.05 4.05 4.05h12.89a4.05 4.05 0 0 0 4.04-4.05v-9.99h7.53v9.99c0 2.23 1.81 4.05 4.05 4.05h12.88c2.24 0 4.05-1.82 4.05-4.05v-9.99h4.7c2.72 0 4.93-2.2 4.93-4.92v-60.04c0-2.72-2.21-4.93-4.93-4.93zm-39.33 36.66c0 2.93-2.38 5.3-5.31 5.3h-4.11c-2.93 0-5.29-2.37-5.29-5.3v-7.7c0-2.93 2.36-5.3 5.29-5.3h4.11c2.93 0 5.31 2.37 5.31 5.3v7.7zm2.01 12.61 7.3-7.31 7.31 7.31h-14.61zm31.33-12.61c0 2.93-2.36 5.3-5.29 5.3h-4.11c-2.93 0-5.31-2.37-5.31-5.3v-7.7c0-2.93 2.38-5.3 5.31-5.3h4.11c2.93 0 5.29 2.37 5.29 5.3v7.7z"/><path style="fill:#cacacc" d="m292.554 232.606 19.406-7.975-7.975-19.407-19.406 7.975 1.733 4.219-63.965 26.286-1.734-4.219-19.407 7.975 7.975 19.407 19.407-7.975-1.734-4.219 63.966-26.286z"/><path style="fill:#fff" d="m220.613 232.606-19.407-7.975 7.975-19.407 19.407 7.975-1.734 4.219 63.966 26.286 1.734-4.219 19.406 7.975-7.975 19.407-19.406-7.975 1.733-4.219-63.965-26.286z"/><path style="fill:#f9bd38" d="M209.49 337.87c-.4-5.41-.6-9.47-.6-12.19 0-1.01.06-2.53.18-4.58.11-2.04.17-3.56.17-4.57 0-.7-.26-1.04-.79-1.04-.67 0-1.68.04-3.03.14-1.35.09-2.36.14-3.03.14-.63 0-1.56-.06-2.79-.17-1.23-.12-2.16-.18-2.77-.18-.23 0-.4.02-.5.07-.27.08-.41.32-.41.72 0 1.35.14 3.12.41 5.31.31 2.84.5 4.6.57 5.3-2.65 1.07-5.05 1.61-7.2 1.61-3.39 0-6.01-1.03-7.86-3.1-1.79-1.99-2.68-4.71-2.68-8.14 0-3.24.86-5.94 2.59-8.11 1.85-2.36 4.35-3.54 7.51-3.54 1.93 0 3.7.43 5.3 1.3 1.07.56 2.13 1.36 3.16 2.4.84.86 1.32 1.29 1.45 1.29.55 0 1.76-1.17 3.65-3.52 1.88-2.35 2.82-3.86 2.82-4.53 0-.21-.18-.57-.54-1.07-1.74-2.44-4.14-4.34-7.19-5.68-2.82-1.22-5.83-1.83-9.03-1.83-6.59 0-11.94 2.27-16.07 6.81-4 4.4-5.99 9.94-5.99 16.61 0 6.52 2.06 11.92 6.18 16.19 4.17 4.34 9.5 6.5 16.01 6.5 4.04 0 8.26-.86 12.65-2.59.45.17 1.62.49 3.52.95 1.91.46 3.06.7 3.46.7.63 0 .93-.29.88-.86l-.03-.34zM248.07 318.04c-4.99-12.94-8-20.51-9.03-22.72-.34-.7-.71-1.05-1.11-1.05-.54 0-1.37.04-2.48.11-1.1.08-1.94.11-2.5.11-.59 0-1.48-.05-2.67-.15-1.19-.11-2.07-.16-2.64-.16-.25 0-.49.24-.69.71-.07.14-.13.31-.19.49-.44 1.39-3.24 9.06-8.4 23.01-4.75 12.9-7.13 19.62-7.13 20.17 0 .61 1.61.92 4.83.92 4.08 0 6.48-.09 7.19-.26.57-.14 1.06-1.09 1.46-2.84.44-1.91.84-3.04 1.2-3.38.23-.18 2.13-.28 5.71-.28 5.3 0 8.12.07 8.46.22.4.21.96 1.83 1.67 4.86.19.8.64 1.28 1.36 1.42.86.17 2.8.26 5.81.26 1.3 0 2.4-.01 3.28-.04 1.35-.04 2.21-.12 2.59-.22.52-.14.79-.41.79-.79 0-.56-2.51-7.36-7.51-20.39zm-11.4 3.63c-.15.34-.91.51-2.3.51-1.5 0-2.57-.02-3.22-.07-1.27-.04-1.9-.25-1.9-.63 0-.57.57-2.49 1.71-5.77 1.05-3.1 1.8-5.11 2.24-6.03.44.84 1.13 2.78 2.08 5.81.97 3.13 1.45 5.05 1.45 5.74 0 .19-.02.34-.06.44zM305.58 327.95c-.19-4.58-.29-8.02-.29-10.32 0-2.48.09-6.19.27-11.12.18-4.94.27-8.65.27-11.13 0-.51-.32-.76-.95-.76-.52 0-1.33.05-2.41.16-1.08.1-1.89.16-2.41.16-.64 0-1.57-.04-2.8-.1s-2.15-.09-2.76-.09c-.42 0-.81.41-1.17 1.23-4.17 8.9-7.31 15.56-9.44 19.98-.75 1.58-1.25 2.37-1.48 2.37-.44 0-.99-.69-1.64-2.05l-9.22-20.24c-.42-.88-.75-1.32-.98-1.32-1.16 0-2.89.03-5.21.11-2.31.07-4.05.11-5.2.11-.91 0-1.35.21-1.33.63l.03.53c.17 3.46.26 6.05.28 7.8.21 6.71.32 11.29.32 13.73 0 2.3-.11 5.74-.33 10.34-.22 4.6-.33 8.04-.33 10.34 0 .34.05.57.14.71.09.13.35.2.77.2h10.55c.59 0 .88-.36.88-1.1 0-2.06-.05-5.16-.16-9.28-.1-4.13-.16-7.22-.16-9.28 0-.42.08-.73.23-.92.14.13.24.24.28.35.99 2.08 2.47 5.46 4.45 10.13 1.85 4.42 3.35 7.79 4.48 10.1.21.42.87.63 1.96.63.74 0 1.16-.01 1.26-.03.32-.08.58-.37.79-.85 1.52-3.72 3.03-7.46 4.55-11.2 2.59-6.38 3.99-9.63 4.23-9.76.19.04.28.37.28.98 0 2.12-.08 5.31-.24 9.56-.15 4.26-.23 7.44-.23 9.57 0 .74.3 1.1.91 1.1h11.18c.61 0 .91-.32.91-.98 0-2.27-.09-5.7-.28-10.29zM343.36 328.27c-1.09 0-2.74.1-4.94.3-2.2.2-3.85.3-4.97.3h-4.61c-2.33-.15-3.68-.62-4.04-1.42-.21-.46-.31-1.49-.31-3.09 0-1.2.01-1.86.03-1.96.14-.42.65-.63 1.51-.63h3.35c4.27 0 7.01.06 8.21.19l2.84.31c.61 0 .91-.21.91-.63 0-1.68.09-3.37.26-5.05.322-3.189.508-4.819.55-4.895-.024-.433-.266-.665-.74-.665-.43 0-.99.05-1.71.13-.93.09-1.5.14-1.73.16-2.72.15-5.4.22-8.05.22-.41 0-.91.02-1.52.05-.61.03-1.02.04-1.23.04-1.01 0-1.7-.19-2.05-.6-.42-.46-.63-1.4-.63-2.84 0-1.36.05-2.17.15-2.43.26-.52.94-.79 2.06-.79 4.46 0 9.49.24 15.08.7.32.02.54.03.67.03.42 0 .63-.22.63-.66 0-.53-.11-2.02-.33-4.47-.22-2.45-.39-3.92-.49-4.4-.17-.82-.8-1.23-1.9-1.23-1.53 0-3.85.04-6.94.12-3.09.09-5.41.13-6.95.13-1.55 0-3.89-.04-7.02-.13-3.12-.08-5.47-.12-7.02-.12-.57 0-.83.24-.79.72l.03.44c.17 3.35.28 5.87.35 7.55.25 6.54.38 11.01.38 13.41 0 2.36-.14 5.9-.4 10.63-.26 4.72-.39 8.26-.39 10.62 0 .61.34.91 1.04.91 1.6 0 4 .01 7.2.03 3.19.03 5.6.04 7.22.04 7.43 0 11.92.1 13.45.31.44.07.76.1.95.1.44 0 .79-.2 1.04-.6.3-.51.63-2.08 1.01-4.71.36-2.42.54-4.08.54-4.98 0-.76-.23-1.14-.7-1.14zm-1.21-16.575c.001.024.01.041.01.065 0-.057-.004-.077-.01-.065zM211.39 378.19c-4.32-4.56-9.71-6.85-16.17-6.85-6.5 0-11.9 2.29-16.19 6.85-4.21 4.47-6.31 9.97-6.31 16.51 0 6.53 2.1 12.01 6.31 16.45 4.29 4.54 9.69 6.82 16.19 6.82 6.55 0 11.96-2.25 16.23-6.76 4.19-4.44 6.28-9.94 6.28-16.51 0-6.5-2.11-12-6.34-16.51zm-8.59 24.37c-2.08 2.38-4.61 3.57-7.58 3.57-3.17 0-5.75-1.13-7.73-3.38-1.87-2.14-2.81-4.83-2.81-8.05 0-3.01 1-5.67 3-7.98 2.06-2.4 4.58-3.6 7.54-3.6 3.12 0 5.68 1.16 7.67 3.47 1.92 2.21 2.88 4.89 2.88 8.05 0 3.01-.99 5.65-2.97 7.92zM259.02 372.51c-1.16 0-2.91.06-5.26.18-2.34.11-4.1.17-5.25.17h-1.01c-.19.06-.29.38-.29.95 0 1.53.02 3.84.07 6.93.04 3.08.06 5.39.06 6.92 0 .93-.99 3.43-2.97 7.52-1.47 3.03-2.79 5.58-3.94 7.67-4.28-8.02-6.41-12.68-6.41-13.99 0-1.7.12-4.26.36-7.68s.36-5.98.36-7.69c0-.44-.26-.66-.78-.66-1.29 0-3.21-.05-5.78-.16-2.57-.1-4.48-.16-5.75-.16-.42 0-.63.39-.63 1.17 0 1.66-.06 4.16-.17 7.5-.12 3.33-.17 5.83-.17 7.49 0 1.01 1.9 5.34 5.71 12.98 2.42 4.75 4.83 9.5 7.23 14.23.27.53.61.84 1.01.92.4.08 2.02.13 4.86.13 2.25 0 3.91-.05 4.99-.13.46-.04.73-.09.8-.14.07-.05.22-.31.43-.78 3.09-6.01 5.46-10.52 7.1-13.51 4.15-8.29 6.22-13.09 6.22-14.39 0-1.64.02-4.1.08-7.37.05-3.27.08-5.72.08-7.34 0-.5-.32-.76-.95-.76zM296.27 405.85c-1.1 0-2.74.1-4.94.3-2.2.2-3.86.3-4.98.3h-4.6c-2.34-.15-3.69-.62-4.04-1.42-.21-.47-.32-1.5-.32-3.1 0-1.2.01-1.85.03-1.95.15-.43.65-.64 1.52-.64h3.34c4.28 0 7.01.07 8.21.19l2.84.32c.61 0 .92-.21.92-.63 0-1.69.08-3.37.25-5.05.331-3.187.518-4.817.56-4.895-.025-.441-.276-.665-.75-.665-.42 0-.99.04-1.71.13-.92.08-1.5.13-1.73.16-2.72.14-5.4.22-8.05.22-.4 0-.91.01-1.51.04-.62.03-1.03.05-1.24.05-1.01 0-1.69-.2-2.05-.6-.42-.46-.63-1.41-.63-2.84 0-1.37.05-2.18.16-2.43.25-.53.93-.79 2.05-.79 4.46 0 9.49.23 15.09.69.31.03.53.04.66.04.42 0 .63-.22.63-.67 0-.22-.02-.62-.06-1.19-.05-.77-.14-1.86-.27-3.27-.22-2.45-.38-3.92-.49-4.41-.17-.82-.8-1.23-1.89-1.23-1.54 0-3.85.05-6.95.13-.7.02-1.37.03-1.99.05-2.11.05-3.76.08-4.95.08-1.56 0-3.9-.05-7.02-.13-3.13-.08-5.47-.13-7.03-.13-.57 0-.83.24-.79.73l.03.44c.17 3.35.29 5.86.35 7.54.25 6.55.38 11.02.38 13.42 0 2.36-.13 5.9-.39 10.62-.27 4.73-.4 8.27-.4 10.62 0 .61.35.92 1.04.92 1.6 0 4 .01 7.2.03 3.2.02 5.61.03 7.23.03 7.43 0 11.91.11 13.45.32.44.06.75.09.94.09.44 0 .79-.2 1.04-.6.3-.5.64-2.07 1.01-4.7.36-2.42.54-4.08.54-4.99 0-.75-.23-1.13-.69-1.13zm-1.21-16.575c.001.023.01.04.01.065 0-.057-.003-.076-.01-.065zM334.93 407.71c-1.52-3.15-2.6-5.36-3.22-6.63-.41-.86-.63-1.29-.63-1.29 0-.3.25-.61.73-.95 2.38-1.73 4.01-3.51 4.89-5.34.89-1.83 1.33-4.28 1.33-7.35 0-4.61-1.72-8.13-5.15-10.58-3.03-2.16-6.94-3.25-11.74-3.25-2.31 0-5.42.05-9.31.13-5.75.13-8.96.25-9.65.38-.68.12-1.01.37-.99.72l.03.45c.24 3.04.41 6.81.51 11.31.06 2.88.09 6.05.09 9.52 0 2.34-.11 5.84-.33 10.51-.22 4.67-.33 8.17-.33 10.48 0 .53.3.85.91.98.61.13 2.42.19 5.43.19 2.63 0 4.57-.04 5.81-.13l.89-.06c.19-.06.28-.27.28-.63 0-1.43-.13-3.57-.39-6.41-.27-2.84-.4-4.98-.4-6.41 0-1.07.16-1.61.47-1.61 2.29 0 3.43-.01 3.43-.04 1.27.1 2.09.56 2.45 1.34 1.74 4.1 3.03 7.2 3.85 9.31.61 1.62 1.07 2.84 1.39 3.66.16.36.31.57.44.63.06.04.32.1.79.16.99.13 2.86.19 5.62.19 3.22 0 5.22-.06 6.02-.19.43-.06.64-.17.64-.32 0-.54-1.29-3.47-3.86-8.77zm-20.36-14.33c-.67-.11-1.01-.21-1.01-.32 0-.2 0-.44-.01-.72 0-.38-.01-.85-.02-1.39-.02-.95-.03-1.67-.03-2.15 0-3.41.06-5.47.19-6.19.13-.61 1.19-.91 3.19-.91 2.78 0 4.82.38 6.12 1.13 1.69.99 2.53 2.77 2.53 5.34 0 3.66-2.31 5.49-6.91 5.49-1 0-1.97-.05-2.9-.14-.39-.04-.77-.08-1.15-.14z"/><path transform="rotate(4.98 158.102 266.902)" style="fill:#fff" d="M148.583 257.367h19v19h-19z"/><path transform="rotate(45.001 361.088 277.153)" style="fill:#fff" d="M351.583 267.656h19v19h-19z"/><path transform="rotate(45.001 165.588 357.655)" style="fill:#fff" d="M156.083 348.156h19v19h-19z"/><path transform="rotate(45.001 363.59 413.154)" style="fill:#fff" d="M354.083 403.656h19v19h-19z"/></svg>