<svg xmlns="http://www.w3.org/2000/svg" viewBox="0 0 48 48"><defs><style>.cls-2{fill:#fff}.cls-3{fill:#256494}</style></defs><g id="_21-Adventure_games" data-name="21-Adventure games"><path d="M43 38v9c-3.8 0-3.8-2-7.6-2s-3.8 2-7.61 2C24 47 24 45 20.2 45s-3.8 2-7.6 2-3.8-2-7.6-2V11A10 10 0 0 1 15 1h18a10 10 0 0 1 10 10v27z" style="fill:#65b1fc"/><circle class="cls-2" cx="17" cy="16" r="5"/><circle class="cls-2" cx="31" cy="16" r="5"/><path class="cls-2" d="M35 36H9c-7 0-8-8-8-8h34v8zM40 30h7v4h-7zM37 34h-2v-4h5v4h-3z"/><path class="cls-3" d="M34 37v1h-2v2h2a2 2 0 0 0 2-2V26a2 2 0 0 0-2-2h-2v2h2v1H1a1 1 0 0 0-.992 1.124C.392 31.194 2.765 37 9 37zM2.227 29H34v6H9c-4.6 0-6.238-3.987-6.773-6z"/><path class="cls-3" d="M7 31h16v2H7zM47 29h-6v-2h-2v2h-2v2h2v2h-2v2h2v2h2v-2h6a1 1 0 0 0 1-1v-4a1 1 0 0 0-1-1zm-1 4h-5v-2h5zM25 31h2v2h-2zM29 31h2v2h-2zM42 45.941a6.261 6.261 0 0 1-2.334-.826 8.72 8.72 0 0 0-8.531 0A6.135 6.135 0 0 1 27.79 46a6.079 6.079 0 0 1-3.323-.884A8.051 8.051 0 0 0 20.2 44a8.063 8.063 0 0 0-4.266 1.115A6.107 6.107 0 0 1 12.6 46a6.107 6.107 0 0 1-3.334-.885A8.072 8.072 0 0 0 6 44.047V39H4v6a1 1 0 0 0 1 1 6.107 6.107 0 0 1 3.334.885A8.063 8.063 0 0 0 12.6 48a8.063 8.063 0 0 0 4.266-1.115A6.107 6.107 0 0 1 20.2 46a6.092 6.092 0 0 1 3.334.886A8.034 8.034 0 0 0 27.79 48a8.082 8.082 0 0 0 4.276-1.116 6.726 6.726 0 0 1 6.668 0A8.066 8.066 0 0 0 43 48a1 1 0 0 0 1-1v-9h-2zM6 11a9.011 9.011 0 0 1 9-9h18a9.011 9.011 0 0 1 9 9v15h2V11A11.013 11.013 0 0 0 33 0H15A11.013 11.013 0 0 0 4 11v14h2z"/><path class="cls-3" d="M20.293 11.293 17 14.586l-3.293-3.293-1.414 1.414L15.586 16l-3.293 3.293 1.414 1.414L17 17.414l3.293 3.293 1.414-1.414L18.414 16l3.293-3.293-1.414-1.414zM34.293 11.293 31 14.586l-3.293-3.293-1.414 1.414L29.586 16l-3.293 3.293 1.414 1.414L31 17.414l3.293 3.293 1.414-1.414L32.414 16l3.293-3.293-1.414-1.414z"/></g></svg>